<mxfile host="app.diagrams.net" modified="2024-05-21T02:37:26.270Z" agent="Mozilla/5.0 (Macintosh; Intel Mac OS X 10_15_7) AppleWebKit/537.36 (KHTML, like Gecko) Chrome/119.0.0.0 Safari/537.36" version="24.4.4" etag="rWMgvBILt-saj5Ja13cs" type="github">
  <diagram name="Page-1" id="5V2zMSA22SMULHo3x1fy">
    <mxGraphModel>
      <root>
        <mxCell id="0" />
        <mxCell id="1" parent="0" />
      </root>
    </mxGraphModel>
  </diagram>
</mxfile>
